<svg xmlns="http://www.w3.org/2000/svg" xmlns:xlink="http://www.w3.org/1999/xlink" zoomAndPan="magnify" viewBox="0 0 1440 809.999993" preserveAspectRatio="xMidYMid meet" version="1.2"><defs><clipPath id="bc321d0e5e"><path d="M 558.710938 385.332031 L 595.460938 385.332031 L 595.460938 422 L 558.710938 422 Z M 558.710938 385.332031 "/></clipPath><clipPath id="ae4a05d9e0"><path d="M 558.710938 403.800781 C 558.710938 408.699219 560.660156 413.394531 564.121094 416.859375 C 567.585938 420.324219 572.28125 422.269531 577.179688 422.269531 C 582.078125 422.269531 586.777344 420.324219 590.242188 416.859375 C 593.703125 413.394531 595.648438 408.699219 595.648438 403.800781 C 595.648438 398.902344 593.703125 394.203125 590.242188 390.742188 C 586.777344 387.277344 582.078125 385.332031 577.179688 385.332031 C 572.28125 385.332031 567.585938 387.277344 564.121094 390.742188 C 560.660156 394.203125 558.710938 398.902344 558.710938 403.800781 Z M 558.710938 403.800781 "/></clipPath></defs><g id="56c0265c8f"><g clip-rule="nonzero" clip-path="url(#bc321d0e5e)"><g clip-rule="nonzero" clip-path="url(#ae4a05d9e0)"><path style=" stroke:none;fill-rule:nonzero;fill:#1c81cb;fill-opacity:1;" d="M 595.203125 404.316406 C 595.222656 403.722656 595.210938 403.128906 595.167969 402.539062 C 595.128906 401.945312 595.058594 401.355469 594.960938 400.773438 C 594.863281 400.1875 594.734375 399.609375 594.578125 399.035156 C 594.425781 398.464844 594.242188 397.898438 594.03125 397.34375 C 593.820312 396.789062 593.582031 396.246094 593.320312 395.714844 C 593.054688 395.183594 592.765625 394.667969 592.449219 394.164062 C 592.136719 393.664062 591.796875 393.175781 591.433594 392.707031 C 591.070312 392.238281 590.6875 391.785156 590.28125 391.355469 C 589.875 390.921875 589.445312 390.511719 589 390.121094 C 588.550781 389.734375 588.085938 389.367188 587.601562 389.023438 C 587.121094 388.679688 586.621094 388.359375 586.105469 388.0625 C 585.59375 387.769531 585.0625 387.5 584.523438 387.257812 C 583.980469 387.011719 583.429688 386.796875 582.867188 386.609375 C 582.304688 386.417969 581.734375 386.257812 581.15625 386.125 C 580.578125 385.992188 579.996094 385.886719 579.40625 385.8125 C 578.820312 385.734375 578.230469 385.6875 577.636719 385.671875 C 577.042969 385.652344 576.449219 385.664062 575.859375 385.707031 C 575.265625 385.746094 574.679688 385.816406 574.09375 385.914062 C 573.507812 386.011719 572.929688 386.136719 572.355469 386.292969 C 571.785156 386.449219 571.222656 386.632812 570.667969 386.84375 C 570.113281 387.054688 569.570312 387.289062 569.039062 387.554688 C 568.507812 387.816406 567.988281 388.105469 567.484375 388.421875 C 566.984375 388.734375 566.496094 389.074219 566.027344 389.4375 C 565.558594 389.800781 565.105469 390.183594 564.675781 390.589844 C 564.242188 390.996094 563.832031 391.425781 563.441406 391.871094 C 563.050781 392.320312 562.683594 392.785156 562.339844 393.265625 C 561.996094 393.75 561.675781 394.25 561.382812 394.761719 C 561.085938 395.277344 560.816406 395.804688 560.574219 396.347656 C 560.332031 396.886719 560.113281 397.4375 559.925781 398 C 559.734375 398.5625 559.574219 399.132812 559.441406 399.710938 C 559.308594 400.289062 559.203125 400.875 559.128906 401.460938 C 559.050781 402.050781 559.003906 402.640625 558.988281 403.234375 C 558.96875 403.828125 558.980469 404.417969 559.019531 405.011719 C 559.0625 405.601562 559.128906 406.191406 559.230469 406.777344 C 559.328125 407.359375 559.453125 407.941406 559.609375 408.511719 C 559.761719 409.085938 559.945312 409.648438 560.15625 410.203125 C 560.367188 410.757812 560.605469 411.300781 560.867188 411.832031 C 561.132812 412.363281 561.421875 412.882812 561.734375 413.382812 C 562.050781 413.886719 562.386719 414.375 562.75 414.84375 C 563.113281 415.3125 563.496094 415.761719 563.902344 416.195312 C 564.308594 416.628906 564.738281 417.039062 565.183594 417.429688 C 565.628906 417.820312 566.09375 418.1875 566.578125 418.53125 C 567.0625 418.875 567.558594 419.195312 568.074219 419.488281 C 568.589844 419.785156 569.117188 420.054688 569.65625 420.296875 C 570.199219 420.542969 570.75 420.757812 571.3125 420.949219 C 571.875 421.136719 572.445312 421.296875 573.023438 421.433594 C 573.601562 421.566406 574.183594 421.671875 574.773438 421.746094 C 575.359375 421.820312 575.949219 421.871094 576.542969 421.886719 C 577.136719 421.90625 577.730469 421.894531 578.324219 421.855469 C 578.914062 421.8125 579.503906 421.746094 580.089844 421.648438 C 580.675781 421.546875 581.253906 421.421875 581.828125 421.265625 C 582.398438 421.113281 582.964844 420.929688 583.519531 420.71875 C 584.074219 420.507812 584.617188 420.269531 585.148438 420.007812 C 585.679688 419.742188 586.199219 419.453125 586.703125 419.136719 C 587.207031 418.824219 587.691406 418.484375 588.164062 418.121094 C 588.632812 417.757812 589.082031 417.375 589.515625 416.96875 C 589.949219 416.5625 590.359375 416.132812 590.75 415.6875 C 591.140625 415.238281 591.507812 414.773438 591.851562 414.289062 C 592.195312 413.804688 592.515625 413.308594 592.8125 412.792969 C 593.105469 412.277344 593.375 411.75 593.617188 411.207031 C 593.863281 410.664062 594.078125 410.113281 594.269531 409.550781 C 594.457031 408.988281 594.617188 408.417969 594.75 407.839844 C 594.882812 407.261719 594.988281 406.675781 595.0625 406.085938 C 595.140625 405.5 595.1875 404.90625 595.203125 404.316406 Z M 571.585938 413.269531 L 579.894531 403.769531 L 571.585938 394.273438 L 573.527344 392.566406 L 583.335938 403.769531 L 573.527344 414.976562 Z M 571.585938 413.269531 "/></g></g><g style="fill:#ffffff;fill-opacity:1;"><g transform="translate(607.839354, 422.497776)"><path style="stroke:none" d="M 7.3125 -36.3125 L 30.15625 -36.3125 L 29.25 -30.515625 L 12.5625 -30.515625 L 11.09375 -21.1875 L 26.421875 -21.1875 L 25.515625 -15.390625 L 10.296875 -15.390625 L 7.875 0 L 1.5625 0 Z M 7.3125 -36.3125 "/></g></g><g style="fill:#ffffff;fill-opacity:1;"><g transform="translate(638.1009, 422.497776)"><path style="stroke:none" d="M 7.015625 -36.3125 L 18.90625 -36.3125 C 20.757812 -36.3125 22.382812 -36.050781 23.78125 -35.53125 C 25.175781 -35.007812 26.328125 -34.273438 27.234375 -33.328125 C 28.140625 -32.390625 28.769531 -31.25 29.125 -29.90625 C 29.476562 -28.5625 29.519531 -27.066406 29.25 -25.421875 C 28.882812 -22.960938 27.96875 -20.867188 26.5 -19.140625 C 25.039062 -17.410156 23.1875 -16.160156 20.9375 -15.390625 L 25.78125 0 L 19.015625 0 L 14.78125 -14.53125 L 9.890625 -14.53125 L 7.5625 0 L 1.265625 0 Z M 16.296875 -19.625 C 18.078125 -19.625 19.554688 -20.132812 20.734375 -21.15625 C 21.910156 -22.1875 22.632812 -23.554688 22.90625 -25.265625 C 23.164062 -26.984375 22.867188 -28.363281 22.015625 -29.40625 C 21.160156 -30.445312 19.84375 -30.96875 18.0625 -30.96875 L 12.453125 -30.96875 L 10.6875 -19.625 Z M 16.296875 -19.625 "/></g></g><g style="fill:#ffffff;fill-opacity:1;"><g transform="translate(668.362446, 422.497776)"><path style="stroke:none" d="M 7.609375 -36.3125 L 29.90625 -36.3125 L 29.046875 -30.8125 L 13.015625 -30.8125 L 11.546875 -21.4375 L 25.78125 -21.4375 L 24.921875 -15.890625 L 10.640625 -15.890625 L 9.03125 -5.5 L 25.015625 -5.5 L 24.15625 0 L 1.859375 0 Z M 7.609375 -36.3125 "/></g></g><g style="fill:#ffffff;fill-opacity:1;"><g transform="translate(698.623992, 422.497776)"><path style="stroke:none" d="M 1.71875 0 L 2.578125 -5.5 L 10.34375 -5.5 L 14.328125 -30.8125 L 6.609375 -30.8125 L 7.46875 -36.3125 L 29.25 -36.3125 L 28.390625 -30.8125 L 20.625 -30.8125 L 16.640625 -5.5 L 24.40625 -5.5 L 23.5 0 Z M 1.71875 0 "/></g></g><g style="fill:#ffffff;fill-opacity:1;"><g transform="translate(728.885538, 422.497776)"><path style="stroke:none" d="M 12 -18.71875 L 5.296875 -36.3125 L 12.109375 -36.3125 L 15.328125 -27.34375 C 15.703125 -26.394531 15.941406 -25.632812 16.046875 -25.0625 C 16.140625 -24.726562 16.203125 -24.425781 16.234375 -24.15625 L 16.5 -24.15625 C 16.625 -24.425781 16.773438 -24.710938 16.953125 -25.015625 C 17.117188 -25.285156 17.3125 -25.613281 17.53125 -26 C 17.75 -26.382812 18.007812 -26.796875 18.3125 -27.234375 L 24.5625 -36.3125 L 31.46875 -36.3125 L 19.109375 -18.765625 L 26.328125 0 L 19.515625 0 L 15.84375 -10.03125 C 15.5 -10.945312 15.242188 -11.738281 15.078125 -12.40625 C 15.015625 -12.738281 14.945312 -13.039062 14.875 -13.3125 L 14.671875 -13.3125 C 14.535156 -13.039062 14.367188 -12.738281 14.171875 -12.40625 C 14.003906 -12.132812 13.8125 -11.796875 13.59375 -11.390625 C 13.375 -10.992188 13.097656 -10.5625 12.765625 -10.09375 L 5.84375 0 L -1.109375 0 Z M 12 -18.71875 "/></g></g><g style="fill:#ffffff;fill-opacity:1;"><g transform="translate(759.147084, 422.497776)"><path style="stroke:none" d="M 16.046875 -36.3125 L 24.5625 -36.3125 L 28.296875 0 L 21.890625 0 L 21.1875 -9.125 L 10.75 -9.125 L 7.109375 0 L 0.5625 0 Z M 12.703125 -14.125 L 20.78125 -14.125 L 19.765625 -26.984375 C 19.703125 -27.585938 19.671875 -28.175781 19.671875 -28.75 C 19.671875 -29.320312 19.671875 -29.84375 19.671875 -30.3125 C 19.671875 -30.851562 19.671875 -31.359375 19.671875 -31.828125 L 19.421875 -31.828125 C 19.285156 -31.359375 19.148438 -30.851562 19.015625 -30.3125 C 18.847656 -29.84375 18.679688 -29.320312 18.515625 -28.75 C 18.347656 -28.175781 18.128906 -27.601562 17.859375 -27.03125 Z M 12.703125 -14.125 "/></g></g><g style="fill:#ffffff;fill-opacity:1;"><g transform="translate(789.40863, 422.497776)"><path style="stroke:none" d="M 6.703125 -36.3125 L 14.46875 -36.3125 L 19.3125 -12.203125 C 19.414062 -11.703125 19.492188 -11.097656 19.546875 -10.390625 C 19.597656 -9.679688 19.640625 -8.992188 19.671875 -8.328125 C 19.703125 -7.546875 19.71875 -6.753906 19.71875 -5.953125 L 20.328125 -5.953125 C 20.328125 -5.953125 20.332031 -6.203125 20.34375 -6.703125 C 20.363281 -7.210938 20.390625 -7.851562 20.421875 -8.625 C 20.460938 -9.394531 20.515625 -10.25 20.578125 -11.1875 C 20.640625 -12.132812 20.738281 -13.046875 20.875 -13.921875 L 24.40625 -36.3125 L 30.015625 -36.3125 L 24.265625 0 L 16.5 0 L 11.796875 -24.109375 C 11.660156 -24.785156 11.566406 -25.484375 11.515625 -26.203125 C 11.472656 -26.921875 11.4375 -27.601562 11.40625 -28.25 C 11.363281 -28.988281 11.34375 -29.707031 11.34375 -30.40625 L 10.75 -30.40625 C 10.75 -29.601562 10.710938 -28.75 10.640625 -27.84375 C 10.578125 -27.070312 10.507812 -26.222656 10.4375 -25.296875 C 10.375 -24.367188 10.257812 -23.414062 10.09375 -22.4375 L 6.5625 0 L 0.953125 0 Z M 6.703125 -36.3125 "/></g></g><g style="fill:#ffffff;fill-opacity:1;"><g transform="translate(819.670176, 422.497776)"><path style="stroke:none" d="M 7.609375 -36.3125 L 29.90625 -36.3125 L 29.046875 -30.8125 L 13.015625 -30.8125 L 11.546875 -21.4375 L 25.78125 -21.4375 L 24.921875 -15.890625 L 10.640625 -15.890625 L 9.03125 -5.5 L 25.015625 -5.5 L 24.15625 0 L 1.859375 0 Z M 7.609375 -36.3125 "/></g></g><g style="fill:#ffffff;fill-opacity:1;"><g transform="translate(849.931723, 422.497776)"><path style="stroke:none" d="M 4.28125 -30.515625 L 5.1875 -36.3125 L 31.515625 -36.3125 L 30.609375 -30.515625 L 20.625 -30.515625 L 15.78125 0 L 9.4375 0 L 14.28125 -30.515625 Z M 4.28125 -30.515625 "/></g></g></g></svg>