<svg xmlns="http://www.w3.org/2000/svg" xmlns:xlink="http://www.w3.org/1999/xlink" width="1920" zoomAndPan="magnify" viewBox="0 0 1440 809.999993" height="1080" preserveAspectRatio="xMidYMid meet" version="1.2"><defs><clipPath id="ceea661cbb"><path d="M 655 334.78125 L 759 334.78125 L 759 389 L 655 389 Z M 655 334.78125 "/></clipPath><clipPath id="24757f51b5"><path d="M 640.183594 343 L 799 343 L 799 475 L 640.183594 475 Z M 640.183594 343 "/></clipPath></defs><g id="d0ceb414a0"><g clip-rule="nonzero" clip-path="url(#ceea661cbb)"><path style=" stroke:none;fill-rule:nonzero;fill:#1c81cb;fill-opacity:1;" d="M 747.289062 335.679688 C 748.1875 335.320312 749.441406 334.960938 750.519531 335.140625 C 751.058594 336.039062 751.773438 336.753906 752.851562 336.578125 C 753.210938 337.292969 754.109375 336.933594 754.644531 337.113281 C 755.542969 338.730469 758.953125 338.191406 758.054688 340.882812 C 757.160156 341.0625 757.339844 342.496094 756.261719 342.320312 C 755.363281 343.214844 754.46875 344.113281 753.03125 343.933594 C 751.773438 344.292969 750.339844 344.113281 749.441406 345.191406 C 747.109375 345.367188 745.675781 347.523438 743.519531 347.882812 C 742.804688 348.957031 741.546875 348.777344 741.007812 349.855469 C 740.648438 350.035156 740.113281 350.214844 740.113281 350.753906 C 738.316406 350.929688 737.417969 353.085938 735.445312 352.90625 C 734.90625 353.445312 734.726562 354.160156 734.011719 354.339844 C 733.113281 355.058594 732.933594 356.136719 731.675781 356.136719 C 730.601562 357.929688 728.449219 357.75 727.550781 359.542969 C 725.9375 360.082031 724.5 360.621094 723.421875 362.058594 C 721.449219 363.132812 720.015625 364.929688 718.398438 366.363281 C 718.21875 367.441406 716.785156 367.261719 716.246094 368.335938 C 714.808594 368.335938 714.09375 369.953125 712.835938 369.953125 C 712.296875 371.207031 710.863281 371.566406 709.964844 372.464844 C 708.53125 373.363281 707.273438 374.796875 706.914062 376.414062 C 706.375 376.59375 705.839844 376.769531 705.660156 377.308594 C 704.582031 377.847656 703.144531 378.207031 702.429688 379.464844 C 702.25 380.539062 701.890625 381.796875 702.25 383.050781 L 700.453125 383.949219 C 698.480469 383.949219 696.6875 384.847656 694.890625 384.667969 C 693.816406 385.382812 692.199219 385.382812 690.945312 385.5625 C 689.328125 385.207031 687.714844 384.847656 686.277344 384.667969 C 684.664062 384.847656 683.585938 385.921875 682.332031 386.820312 C 680.535156 386.820312 678.382812 386.28125 676.769531 387.539062 C 675.871094 387.71875 674.613281 388.078125 673.898438 387.539062 C 672.820312 387.898438 671.742188 387.71875 671.027344 388.613281 L 668.335938 388.078125 C 667.4375 388.972656 666.179688 388.972656 665.105469 388.613281 C 664.386719 387.71875 662.953125 388.792969 662.234375 388.078125 C 660.082031 388.253906 658.644531 386.820312 656.671875 386.640625 C 656.671875 385.742188 655.773438 385.027344 656.3125 383.949219 C 656.132812 383.410156 655.414062 382.691406 655.953125 381.976562 C 656.492188 381.4375 656.132812 380.539062 656.671875 380 C 656.492188 379.105469 656.492188 378.207031 657.386719 377.667969 C 659.003906 377.847656 659.902344 375.695312 661.515625 376.054688 C 662.59375 375.335938 663.847656 374.617188 664.207031 373.363281 C 665.105469 372.824219 665.824219 371.925781 666.898438 371.925781 C 668.515625 371.566406 668.871094 369.414062 670.488281 369.054688 C 672.640625 367.082031 675.511719 366.542969 677.128906 364.03125 C 678.203125 364.03125 678.5625 362.953125 679.640625 362.953125 C 680.175781 361.519531 682.332031 360.980469 682.691406 359.542969 C 683.585938 358.109375 685.5625 359.1875 685.917969 357.390625 C 686.636719 356.851562 687.175781 356.496094 688.074219 356.496094 C 688.789062 355.417969 690.046875 354.519531 691.304688 353.980469 C 692.019531 352.90625 693.457031 353.800781 694.175781 352.546875 C 694.53125 351.46875 695.789062 351.828125 696.507812 351.46875 C 698.300781 350.394531 699.738281 349.496094 701.710938 349.136719 C 703.324219 348.0625 705.480469 348.238281 707.09375 347.164062 C 708.886719 347.164062 709.425781 344.832031 711.222656 345.191406 C 712.835938 344.113281 715.707031 344.652344 716.246094 342.140625 C 717.5 341.242188 719.296875 341.601562 720.910156 341.421875 C 721.988281 340.703125 723.066406 340.164062 724.320312 340.164062 C 725.398438 338.371094 728.089844 339.269531 728.628906 336.933594 C 729.34375 336.398438 730.242188 336.933594 730.960938 336.933594 C 731.675781 336.933594 732.214844 336.753906 732.753906 336.398438 C 734.726562 336.039062 736.703125 336.933594 738.496094 335.859375 C 740.289062 336.578125 741.367188 334.960938 742.984375 334.960938 C 743.878906 334.960938 744.597656 334.242188 745.496094 334.78125 Z M 747.289062 335.679688 "/></g><g clip-rule="nonzero" clip-path="url(#24757f51b5)"><path style=" stroke:none;fill-rule:nonzero;fill:#1c81cb;fill-opacity:1;" d="M 788.917969 344.472656 C 792.507812 345.90625 796.097656 349.136719 797.355469 352.90625 C 798.25 353.625 797.710938 354.878906 798.609375 355.597656 C 799.148438 356.851562 798.429688 358.109375 798.25 359.367188 C 796.816406 360.082031 795.738281 361.699219 794.660156 362.773438 C 794.660156 363.851562 793.40625 364.03125 792.867188 364.570312 C 791.96875 364.929688 791.253906 364.390625 790.535156 365.109375 C 789.636719 364.929688 789.097656 366.363281 788.203125 365.644531 C 786.945312 366.542969 785.152344 366.183594 783.535156 366.542969 C 782.28125 368.15625 780.84375 366.003906 779.410156 366.902344 C 778.152344 367.261719 776.898438 368.515625 775.460938 368.515625 C 775.28125 369.054688 774.921875 369.953125 774.207031 369.414062 C 773.488281 368.515625 772.410156 369.59375 771.515625 369.59375 C 770.976562 370.3125 769.898438 369.953125 769.179688 370.492188 C 767.746094 370.671875 766.847656 371.925781 765.59375 372.105469 C 763.257812 374.078125 760.03125 374.078125 757.875 376.234375 C 756.082031 375.875 755.363281 378.207031 753.570312 378.207031 C 753.390625 378.925781 753.03125 379.640625 752.132812 379.640625 C 751.773438 380 751.417969 380.179688 751.058594 379.820312 C 749.980469 380.71875 748.726562 381.257812 747.828125 382.335938 C 747.46875 383.949219 745.136719 382.511719 744.957031 384.308594 C 744.058594 385.207031 742.445312 385.207031 741.726562 386.460938 C 740.828125 387.179688 739.394531 387.539062 739.035156 388.792969 C 738.496094 389.332031 737.417969 389.332031 737.417969 390.230469 C 736.703125 390.410156 735.804688 390.410156 735.625 391.125 C 735.984375 392.5625 737.597656 392.203125 738.675781 392.5625 C 739.394531 392.382812 740.46875 392.382812 741.007812 392.921875 C 742.265625 392.5625 743.699219 393.28125 745.136719 392.742188 C 746.929688 392.742188 748.902344 393.640625 750.699219 392.921875 C 751.953125 393.820312 753.390625 392.382812 754.46875 393.460938 C 756.261719 392.742188 757.875 394.175781 759.492188 393.28125 C 760.746094 393.28125 761.464844 394.175781 762.722656 393.460938 C 763.976562 394.894531 765.953125 393.460938 767.386719 393.820312 L 767.925781 393.996094 C 769.539062 394.175781 771.515625 393.101562 772.949219 394.175781 C 773.847656 393.820312 774.921875 394.714844 775.640625 393.996094 C 776.539062 393.820312 777.613281 394.714844 778.332031 394.175781 C 779.769531 395.074219 782.101562 392.203125 782.28125 394.894531 C 782.28125 395.433594 782.640625 395.792969 783.175781 395.972656 C 784.074219 396.152344 784.972656 395.074219 785.511719 395.972656 C 786.046875 396.867188 786.765625 397.585938 787.125 398.664062 C 787.664062 399.382812 788.203125 400.277344 788.917969 400.636719 C 790.535156 401.535156 789.996094 403.507812 791.433594 404.40625 C 792.148438 404.945312 791.433594 406.199219 792.328125 406.558594 C 792.328125 407.457031 792.867188 407.996094 793.226562 408.710938 C 793.046875 410.328125 792.328125 412.121094 790.894531 412.839844 C 790.175781 414.632812 788.5625 415.890625 786.945312 417.144531 C 786.40625 417.324219 785.871094 416.964844 785.332031 416.964844 C 784.253906 417.144531 783.175781 417.863281 782.28125 417.863281 C 780.304688 416.25 777.257812 417.324219 775.101562 416.429688 C 773.847656 415.710938 772.230469 416.25 770.796875 415.890625 C 770.078125 416.25 769.359375 416.070312 768.644531 415.890625 C 767.566406 415.171875 766.128906 415.710938 765.054688 415.171875 C 763.976562 415.710938 762.902344 414.453125 761.824219 415.171875 C 760.566406 414.8125 759.132812 414.273438 757.875 414.992188 C 756.800781 414.453125 755.902344 415.53125 755.003906 414.8125 C 753.75 415.53125 752.851562 413.738281 751.597656 414.632812 C 750.339844 414.992188 749.261719 414.632812 748.1875 414.453125 C 747.289062 414.453125 746.570312 414.09375 745.855469 414.632812 C 744.597656 414.273438 742.984375 414.273438 741.726562 413.914062 C 740.289062 414.273438 739.214844 413.914062 737.777344 413.738281 C 736.164062 413.914062 734.546875 413.738281 732.933594 414.09375 C 731.855469 415.710938 730.601562 413.558594 729.523438 413.378906 C 727.730469 414.453125 725.9375 412.300781 724.5 413.914062 C 723.242188 413.378906 721.628906 413.019531 720.371094 413.914062 C 718.578125 414.992188 716.964844 412.839844 714.988281 413.378906 C 713.734375 413.019531 712.835938 414.09375 711.582031 414.453125 C 711.222656 415.171875 710.324219 415.710938 710.503906 416.609375 C 709.066406 416.964844 709.066406 418.582031 707.992188 419.300781 C 707.453125 421.09375 705.660156 421.992188 705.300781 423.785156 C 704.582031 424.863281 703.683594 425.9375 703.863281 427.195312 C 702.789062 427.734375 702.609375 428.808594 702.609375 429.886719 C 701.890625 431.320312 700.273438 432.039062 699.917969 433.65625 C 698.300781 435.089844 699.378906 437.601562 697.226562 438.679688 C 697.226562 440.652344 695.96875 442.269531 695.609375 444.242188 C 695.070312 445.316406 694.890625 446.574219 694.53125 447.652344 C 694.710938 449.085938 693.996094 450.34375 693.277344 451.597656 C 693.816406 452.496094 692.738281 452.855469 692.917969 453.753906 C 692.199219 454.828125 692.199219 456.265625 692.378906 457.519531 C 693.097656 458.777344 694.175781 460.210938 693.457031 461.828125 C 693.457031 463.441406 695.25 464.699219 694.175781 466.3125 C 693.457031 467.210938 693.097656 468.464844 691.839844 469.003906 C 691.304688 470.441406 689.507812 470.980469 688.789062 472.414062 C 687.894531 472.414062 687.175781 472.773438 686.457031 472.953125 C 685.023438 473.3125 683.40625 473.671875 682.152344 474.386719 C 680.535156 474.746094 680.179688 472.953125 678.742188 472.59375 C 676.769531 472.773438 675.332031 471.515625 674.078125 470.082031 C 673.539062 469.363281 672.28125 469.003906 672.460938 467.75 C 671.742188 467.390625 671.566406 466.492188 671.386719 465.773438 C 672.101562 464.519531 670.667969 463.800781 670.488281 462.902344 C 670.847656 461.828125 669.949219 461.109375 669.589844 460.210938 C 669.589844 459.496094 669.769531 458.417969 669.230469 457.878906 L 669.050781 455.1875 C 669.769531 453.929688 670.847656 453.214844 670.308594 451.417969 C 671.027344 450.523438 669.949219 449.265625 671.027344 448.546875 C 671.386719 447.652344 671.386719 446.753906 671.742188 446.035156 C 672.101562 445.316406 671.921875 444.242188 671.921875 443.523438 C 672.640625 442.804688 672.460938 441.550781 673.179688 440.832031 C 672.820312 439.398438 673.179688 437.960938 674.4375 436.882812 C 674.078125 434.910156 675.691406 433.835938 676.050781 432.21875 C 676.050781 430.605469 676.949219 429.347656 677.308594 427.734375 C 678.382812 427.015625 678.023438 425.578125 678.382812 424.683594 C 680 423.246094 679.820312 421.273438 681.253906 419.65625 L 681.613281 418.042969 C 682.511719 417.144531 683.046875 416.070312 683.046875 414.992188 C 681.972656 414.273438 680.535156 414.992188 679.28125 414.8125 C 678.203125 415.171875 676.769531 414.992188 675.691406 415.53125 C 675.332031 415.171875 674.613281 414.8125 674.078125 415.171875 C 673.179688 415.710938 672.101562 415.171875 671.027344 415.351562 C 670.488281 415.53125 669.769531 415.53125 669.410156 415.890625 C 668.515625 415.53125 667.4375 415.53125 666.539062 415.710938 C 665.644531 417.324219 663.847656 417.144531 662.773438 416.964844 C 661.515625 417.324219 660.257812 417.144531 659.003906 417.683594 C 657.386719 417.863281 656.3125 416.785156 654.875 417.144531 C 653.621094 417.683594 652.722656 416.609375 651.46875 416.964844 C 650.210938 415.53125 648.773438 417.324219 647.339844 416.609375 C 645.546875 415.351562 643.929688 414.09375 643.03125 412.121094 C 642.675781 411.941406 642.136719 411.582031 641.957031 411.222656 C 643.03125 409.96875 641.417969 408.710938 641.597656 407.277344 C 639.984375 406.019531 642.496094 404.046875 640.519531 402.96875 C 640.339844 401.894531 640.699219 400.636719 640.699219 399.738281 C 642.136719 398.484375 642.136719 396.6875 643.570312 395.433594 C 643.570312 394.175781 645.1875 394.175781 645.902344 393.460938 C 647.519531 393.460938 649.132812 393.820312 650.570312 394.355469 C 652.183594 393.101562 653.980469 394.535156 655.773438 394.175781 C 657.566406 394.355469 659.363281 393.101562 661.15625 393.996094 C 662.59375 393.640625 664.027344 394.535156 665.285156 393.820312 C 666.359375 394.175781 667.617188 393.996094 668.695312 393.640625 C 669.769531 394.714844 670.667969 392.5625 671.742188 393.640625 C 672.820312 393.28125 674.078125 393.996094 675.152344 393.101562 C 676.230469 393.28125 677.484375 393.460938 678.382812 392.742188 C 680.355469 393.640625 682.152344 392.203125 683.945312 392.742188 C 685.203125 392.023438 686.277344 393.460938 687.535156 392.742188 C 688.074219 392.382812 688.789062 392.382812 689.507812 392.742188 C 691.125 392.203125 693.097656 393.460938 694.355469 392.023438 C 695.25 392.742188 696.507812 391.84375 697.582031 392.023438 C 698.660156 392.742188 699.738281 391.84375 700.8125 391.84375 C 701.710938 391.125 702.789062 390.230469 704.042969 389.871094 C 705.480469 388.792969 706.554688 387.179688 707.632812 385.921875 C 707.8125 384.847656 709.066406 385.027344 709.785156 384.847656 C 710.503906 383.050781 712.65625 382.335938 713.195312 380.539062 C 713.914062 379.640625 714.988281 378.925781 715.707031 378.027344 C 715.527344 376.59375 717.324219 376.59375 717.859375 375.515625 C 718.9375 374.4375 719.835938 373.183594 721.269531 372.824219 C 722.527344 371.386719 723.960938 369.953125 725.578125 369.054688 C 725.757812 368.335938 726.472656 368.515625 726.832031 367.980469 C 727.550781 366.363281 729.164062 366.542969 730.242188 365.109375 C 731.855469 364.75 732.933594 363.132812 734.371094 362.238281 C 735.445312 361.878906 736.882812 361.339844 737.242188 360.082031 C 738.496094 359.542969 739.933594 359.542969 740.828125 358.289062 C 741.90625 358.46875 742.085938 356.851562 743.339844 357.210938 C 744.777344 356.316406 746.210938 354.878906 748.007812 354.699219 C 748.902344 354.339844 749.082031 353.085938 750.160156 353.265625 C 751.417969 353.085938 752.492188 352.726562 753.390625 352.007812 C 754.109375 351.109375 755.183594 351.289062 755.902344 350.574219 C 757.695312 350.394531 758.953125 349.136719 760.566406 348.957031 C 761.824219 348.417969 763.257812 348.0625 764.515625 347.164062 C 765.234375 346.445312 766.488281 347.164062 767.386719 346.445312 C 768.464844 346.085938 769.898438 346.445312 770.976562 345.546875 C 771.695312 345.191406 772.589844 345.011719 773.488281 344.832031 C 776.71875 344.472656 780.304688 344.113281 783.535156 343.394531 C 784.613281 343.753906 785.332031 342.855469 786.40625 343.394531 C 786.765625 343.753906 787.664062 345.011719 788.917969 344.472656 Z M 788.917969 344.472656 "/></g><path style=" stroke:none;fill-rule:nonzero;fill:#1c81cb;fill-opacity:1;" d="M 792.6875 372.105469 C 793.046875 372.464844 793.765625 372.105469 794.125 372.824219 C 793.765625 374.257812 793.40625 375.875 793.945312 377.308594 C 793.226562 377.847656 793.765625 379.105469 792.6875 379.464844 C 792.6875 380.539062 792.148438 381.257812 791.433594 381.976562 C 791.253906 382.871094 791.613281 383.949219 790.535156 384.488281 C 790.355469 385.742188 789.457031 386.640625 789.097656 387.71875 C 788.5625 387.71875 788.382812 388.253906 788.203125 388.613281 C 787.304688 388.613281 786.40625 389.511719 785.871094 388.433594 C 784.792969 388.078125 783.714844 388.613281 783 389.152344 C 781.5625 388.792969 780.128906 387.359375 778.691406 388.433594 C 777.433594 388.253906 776 387.179688 774.921875 388.253906 C 774.207031 388.253906 773.308594 388.972656 772.589844 388.253906 C 771.515625 388.433594 770.4375 389.152344 769.359375 388.613281 C 768.644531 388.972656 767.925781 389.511719 767.027344 389.152344 C 766.128906 388.792969 765.234375 388.078125 764.875 387.179688 C 764.515625 387 764.335938 387 763.976562 387.179688 C 763.082031 387.898438 762.183594 387 761.105469 387.179688 C 760.746094 387.359375 760.210938 387.71875 759.671875 387.359375 C 758.414062 387 756.800781 387.539062 755.542969 387.539062 C 754.644531 387 753.929688 388.253906 753.210938 388.613281 L 751.597656 388.613281 C 751.058594 387.71875 749.980469 387 749.082031 386.460938 C 749.082031 385.742188 748.726562 385.382812 748.902344 384.667969 C 749.800781 384.128906 751.238281 383.589844 751.597656 382.511719 C 752.3125 382.15625 753.210938 382.871094 753.929688 382.335938 C 754.46875 381.617188 755.183594 381.617188 755.902344 381.796875 C 757.339844 380.539062 759.3125 380.539062 760.210938 378.566406 C 761.285156 378.207031 762.542969 378.386719 763.4375 377.667969 C 764.875 378.207031 765.59375 376.769531 766.847656 376.769531 C 767.566406 376.234375 768.105469 374.976562 769 375.335938 C 769.898438 375.875 770.078125 374.617188 770.796875 374.617188 C 772.410156 374.796875 773.667969 373.542969 775.460938 373.898438 C 776.359375 373.183594 777.613281 373.542969 778.691406 373.363281 C 780.304688 373.542969 781.921875 372.824219 783.535156 372.285156 C 785.152344 373.003906 786.226562 371.027344 787.84375 371.746094 C 788.5625 372.285156 789.277344 371.207031 789.996094 371.207031 C 790.714844 371.925781 791.96875 371.027344 792.6875 372.105469 Z M 792.6875 372.105469 "/><path style=" stroke:none;fill-rule:nonzero;fill:#1c81cb;fill-opacity:1;" d="M 725.757812 418.402344 C 726.472656 419.480469 727.910156 418.761719 728.984375 418.941406 C 730.78125 420.015625 733.113281 419.835938 735.265625 420.195312 C 735.984375 420.554688 736.703125 420.015625 737.597656 420.015625 C 738.675781 420.195312 740.113281 420.554688 741.007812 419.65625 C 741.546875 419.480469 741.726562 420.015625 742.085938 420.195312 C 742.984375 420.195312 743.699219 420.914062 744.597656 420.375 C 745.496094 420.554688 746.390625 420.015625 747.289062 420.554688 C 749.082031 419.65625 750.699219 421.09375 752.492188 420.554688 C 753.390625 421.453125 754.644531 420.015625 755.542969 420.914062 C 758.054688 420.914062 760.566406 420.734375 763.082031 420.734375 C 764.695312 420.375 766.128906 420.914062 767.566406 420.195312 C 768.644531 421.09375 769.898438 419.480469 770.796875 420.554688 C 771.515625 420.734375 772.410156 419.835938 772.949219 420.734375 C 773.847656 420.914062 774.921875 420.015625 775.820312 420.734375 C 777.792969 420.375 779.769531 421.273438 780.664062 422.886719 C 780.664062 424.503906 780.304688 426.117188 780.128906 427.734375 C 779.769531 428.09375 779.050781 427.734375 778.871094 428.09375 C 778.152344 429.347656 777.433594 430.785156 776.539062 431.859375 C 776.179688 432.21875 776.359375 432.757812 776.179688 433.117188 C 775.460938 434.371094 774.027344 435.089844 773.128906 436.527344 C 773.308594 437.78125 772.949219 439.039062 772.050781 439.933594 C 771.335938 440.652344 770.4375 441.550781 770.257812 442.449219 C 769.179688 443.523438 767.566406 444.421875 767.207031 446.214844 C 766.488281 446.574219 765.59375 446.933594 765.234375 447.832031 L 765.234375 448.546875 C 763.617188 449.984375 761.824219 451.777344 759.851562 452.316406 C 759.3125 453.394531 757.875 453.394531 757.695312 454.46875 C 756.621094 455.546875 755.003906 455.726562 754.289062 457.339844 C 753.03125 457.878906 751.773438 458.058594 750.699219 458.777344 C 747.648438 458.777344 745.855469 461.648438 742.984375 462.007812 C 741.726562 462.722656 740.289062 463.261719 738.675781 463.261719 C 738.136719 463.980469 737.242188 463.621094 736.703125 463.800781 C 733.472656 465.238281 729.703125 465.773438 726.113281 466.132812 L 725.398438 466.671875 L 721.269531 466.492188 C 719.835938 466.132812 718.578125 467.390625 716.964844 466.851562 C 715.347656 467.570312 713.375 467.210938 711.757812 467.929688 C 710.503906 467.03125 708.53125 468.285156 707.09375 467.390625 C 705.839844 467.75 704.941406 467.03125 703.683594 467.210938 C 702.96875 466.851562 701.890625 466.492188 701.53125 465.59375 C 701.351562 464.519531 700.8125 463.261719 699.558594 462.902344 C 699.019531 462.542969 699.199219 462.007812 699.019531 461.46875 C 699.738281 460.390625 699.738281 459.136719 699.558594 458.058594 C 699.558594 456.980469 700.273438 456.085938 699.558594 455.1875 C 699.199219 453.394531 701.351562 453.753906 701.53125 452.316406 C 702.070312 451.058594 700.632812 449.804688 702.070312 448.726562 C 701.710938 447.113281 702.609375 445.855469 703.503906 444.421875 C 703.683594 442.804688 704.582031 441.371094 704.582031 439.574219 C 704.941406 439.21875 705.121094 438.5 704.761719 438.140625 C 705.121094 436.527344 706.195312 435.089844 706.015625 433.296875 C 707.8125 431.859375 707.992188 429.707031 709.605469 428.269531 C 709.605469 427.195312 710.683594 426.476562 710.503906 425.398438 C 710.863281 425.398438 711.222656 425.222656 711.402344 424.863281 C 711.582031 424.324219 711.402344 423.964844 711.222656 423.605469 C 711.757812 423.246094 712.476562 422.886719 712.296875 421.992188 C 712.65625 421.09375 714.09375 421.453125 714.273438 420.375 C 713.914062 419.121094 715.347656 418.761719 716.066406 418.222656 C 716.964844 418.222656 718.039062 417.503906 718.9375 418.042969 C 719.65625 418.222656 720.015625 417.683594 720.550781 417.503906 C 722.167969 418.402344 724.140625 416.964844 725.757812 418.402344 Z M 725.757812 418.402344 "/><path style=" stroke:none;fill-rule:nonzero;fill:#1c81cb;fill-opacity:1;" d="M 673.898438 423.785156 C 673 424.503906 673.179688 426.117188 672.28125 426.65625 C 671.742188 427.914062 671.027344 429.167969 670.847656 430.605469 C 671.207031 432.21875 669.769531 433.117188 669.949219 434.730469 C 669.410156 435.089844 669.769531 435.808594 669.410156 436.347656 C 668.515625 437.78125 668.515625 439.753906 667.4375 441.191406 C 667.257812 443.703125 665.644531 445.675781 665.464844 448.1875 C 664.925781 449.445312 664.027344 450.703125 664.207031 452.316406 C 662.953125 453.035156 663.488281 454.46875 663.667969 455.546875 C 663.308594 456.265625 663.847656 457.519531 662.953125 457.878906 C 661.15625 458.238281 659.902344 456.800781 659.003906 455.726562 C 658.824219 454.828125 658.824219 453.394531 657.566406 453.394531 C 657.03125 453.214844 656.3125 453.214844 655.953125 452.496094 C 654.875 450.703125 652.902344 449.445312 651.824219 447.472656 C 650.210938 446.574219 650.03125 444.601562 648.953125 443.164062 C 648.238281 442.804688 648.417969 441.910156 648.238281 441.191406 C 646.980469 440.472656 647.339844 439.039062 646.441406 437.960938 C 646.261719 437.242188 646.621094 436.527344 646.441406 435.808594 C 646.082031 435.628906 645.546875 435.808594 645.546875 435.269531 C 645.546875 434.191406 646.082031 433.476562 645.726562 432.398438 C 645.726562 431.140625 646.980469 429.886719 645.726562 428.988281 C 645.1875 427.734375 647.339844 428.09375 646.441406 426.835938 C 646.441406 426.117188 646.980469 425.757812 647.699219 425.398438 C 648.953125 425.222656 650.210938 425.042969 651.109375 424.324219 C 652.003906 424.683594 652.722656 424.144531 653.800781 424.503906 C 655.59375 423.785156 657.386719 423.246094 659.363281 423.605469 C 659.722656 423.785156 660.257812 424.144531 660.796875 423.785156 C 660.976562 423.066406 661.875 423.246094 662.414062 423.066406 C 664.207031 423.785156 666.71875 422.351562 668.335938 423.605469 C 668.871094 422.707031 669.949219 423.425781 670.667969 422.886719 C 671.207031 422.527344 672.101562 422.886719 672.460938 422.527344 C 672.820312 423.066406 674.613281 422.351562 673.898438 423.785156 Z M 673.898438 423.785156 "/></g></svg>